<svg width="18" height="18" viewBox="0 0 18 18" fill="none" xmlns="http://www.w3.org/2000/svg">
  <!-- Sea / Water -->
  <path d="M1 16.5C3 15.5 5 17.5 7 16.5C9 15.5 11 17.5 13 16.5C15 15.5 17 17.5 19 16.5" stroke="currentColor" stroke-width="1" stroke-linecap="round"/>
  
  <!-- Island / Sand -->
  <path d="M3 16C3 16 5 12 9 12C13 12 15 16 15 16H3Z" fill="currentColor" fill-opacity="0.2"/>
  <path d="M3 16C3 16 5 12 9 12C13 12 15 16 15 16" stroke="currentColor" stroke-width="1.2" stroke-linecap="round"/>
  
  <!-- Exaggerated Palm Tree Trunk -->
  <path d="M11.5 12C11.5 12 14.5 9 12.5 4.5" stroke="currentColor" stroke-width="1.5" stroke-linecap="round"/>
  
  <!-- Exaggerated Palm Fronds -->
  <g stroke="currentColor" stroke-width="1.2" stroke-linecap="round" stroke-linejoin="round">
    <!-- Large Drooping Left Fronds -->
    <path d="M12.5 4.5C10 4 8 5.5 7.5 8"/>
    <path d="M12.5 4.5C11 2.5 8.5 2 7.5 3"/>
    <!-- Large Drooping Right Fronds -->
    <path d="M12.5 4.5C15 4 17 5.5 17.5 8"/>
    <path d="M12.5 4.5C14 2.5 16.5 2 17.5 3"/>
    <!-- Top Center Frond -->
    <path d="M12.5 4.5C12.5 2.5 11.5 1.5 10.5 1"/>
  </g>
</svg>
