<svg width="18" height="18" viewBox="0 0 18 18" fill="none" xmlns="http://www.w3.org/2000/svg">
  <path d="M5.25 5.25H12.75C14.41 5.25 15.75 6.59 15.75 8.25C15.75 9.91 14.41 11.25 12.75 11.25H5.25C3.59 11.25 2.25 9.91 2.25 8.25C2.25 6.59 3.59 5.25 5.25 5.25Z" stroke="#000000" stroke-width="1.55" stroke-linecap="round" stroke-linejoin="round"/>
  <path d="M4 13.15C5.28 12.37 6.55 12.37 7.83 13.15C9.11 13.93 10.39 13.93 11.67 13.15C12.94 12.37 14.22 12.37 15.5 13.15" stroke="#000000" stroke-width="1.25" stroke-linecap="round"/>
  <path d="M5.55 15.15C6.57 14.6 7.6 14.6 8.62 15.15C9.65 15.7 10.68 15.7 11.7 15.15C12.73 14.6 13.75 14.6 14.78 15.15" stroke="#000000" stroke-width="1.05" stroke-linecap="round" opacity="0.82"/>
</svg>
